<svg width="42" height="42" viewBox="0 0 42 42" fill="none" xmlns="http://www.w3.org/2000/svg">
<mask id="path-1-outside-1_16340_53888" maskUnits="userSpaceOnUse" x="0" y="0" width="42" height="42" fill="black">
<rect fill="white" width="42" height="42"/>
<path d="M16.1847 3.40061C15.6977 3.81563 15.4542 4.02316 15.1941 4.19748C14.5979 4.59708 13.9283 4.87443 13.2242 5.01345C12.917 5.07409 12.5981 5.09954 11.9602 5.15045L11.9601 5.15045C10.3574 5.27835 9.556 5.3423 8.88741 5.57846C7.34102 6.12466 6.12466 7.34102 5.57846 8.88741C5.3423 9.556 5.27835 10.3574 5.15045 11.9601L5.15045 11.9602C5.09954 12.5981 5.07409 12.917 5.01345 13.2242C4.87443 13.9283 4.59708 14.5979 4.19748 15.1941C4.02316 15.4542 3.81562 15.6977 3.40057 16.1848L3.40054 16.1848C2.35767 17.4086 1.83621 18.0205 1.53043 18.6602C0.82319 20.1399 0.82319 21.8601 1.53043 23.3398C1.83621 23.9795 2.35765 24.5914 3.40054 25.8152L3.40061 25.8153C3.81559 26.3022 4.02317 26.5458 4.19748 26.8059C4.59708 27.4021 4.87443 28.0717 5.01345 28.7758C5.07409 29.083 5.09954 29.4019 5.15045 30.0398L5.15045 30.0399C5.27835 31.6426 5.3423 32.444 5.57846 33.1126C6.12466 34.659 7.34102 35.8753 8.88741 36.4215C9.55598 36.6577 10.3573 36.7216 11.96 36.8495L11.9602 36.8495C12.5981 36.9005 12.917 36.9259 13.2242 36.9866C13.9283 37.1256 14.5979 37.4029 15.1941 37.8025C15.4542 37.9768 15.6977 38.1844 16.1848 38.5995C17.4086 39.6423 18.0205 40.1638 18.6602 40.4696C20.1399 41.1768 21.8601 41.1768 23.3398 40.4696C23.9795 40.1638 24.5914 39.6423 25.8152 38.5995C26.3023 38.1844 26.5458 37.9768 26.8059 37.8025C27.4021 37.4029 28.0717 37.1256 28.7758 36.9866C29.083 36.9259 29.4019 36.9005 30.0398 36.8495L30.04 36.8495C31.6427 36.7216 32.444 36.6577 33.1126 36.4215C34.659 35.8753 35.8753 34.659 36.4215 33.1126C36.6577 32.444 36.7216 31.6427 36.8495 30.04L36.8495 30.0398C36.9005 29.4019 36.9259 29.083 36.9866 28.7758C37.1256 28.0717 37.4029 27.4021 37.8025 26.8059C37.9768 26.5458 38.1844 26.3023 38.5995 25.8152C39.6423 24.5914 40.1638 23.9795 40.4696 23.3398C41.1768 21.8601 41.1768 20.1399 40.4696 18.6602C40.1638 18.0205 39.6423 17.4086 38.5995 16.1848C38.1844 15.6977 37.9768 15.4542 37.8025 15.1941C37.4029 14.5979 37.1256 13.9283 36.9866 13.2242C36.9259 12.917 36.9005 12.5981 36.8495 11.9602L36.8495 11.96C36.7216 10.3573 36.6577 9.55598 36.4215 8.88741C35.8753 7.34102 34.659 6.12466 33.1126 5.57846C32.444 5.3423 31.6426 5.27835 30.0399 5.15045L30.0398 5.15045C29.4019 5.09954 29.083 5.07409 28.7758 5.01345C28.0717 4.87443 27.4021 4.59708 26.8059 4.19748C26.5458 4.02315 26.3023 3.81562 25.8152 3.40054C24.5914 2.35766 23.9795 1.83621 23.3398 1.53043C21.8601 0.82319 20.1399 0.82319 18.6602 1.53043C18.0205 1.83621 17.4086 2.35767 16.1848 3.40054L16.1847 3.40061Z"/>
</mask>
<path d="M16.1847 3.40061C15.6977 3.81563 15.4542 4.02316 15.1941 4.19748C14.5979 4.59708 13.9283 4.87443 13.2242 5.01345C12.917 5.07409 12.5981 5.09954 11.9602 5.15045L11.9601 5.15045C10.3574 5.27835 9.556 5.3423 8.88741 5.57846C7.34102 6.12466 6.12466 7.34102 5.57846 8.88741C5.3423 9.556 5.27835 10.3574 5.15045 11.9601L5.15045 11.9602C5.09954 12.5981 5.07409 12.917 5.01345 13.2242C4.87443 13.9283 4.59708 14.5979 4.19748 15.1941C4.02316 15.4542 3.81562 15.6977 3.40057 16.1848L3.40054 16.1848C2.35767 17.4086 1.83621 18.0205 1.53043 18.6602C0.82319 20.1399 0.82319 21.8601 1.53043 23.3398C1.83621 23.9795 2.35765 24.5914 3.40054 25.8152L3.40061 25.8153C3.81559 26.3022 4.02317 26.5458 4.19748 26.8059C4.59708 27.4021 4.87443 28.0717 5.01345 28.7758C5.07409 29.083 5.09954 29.4019 5.15045 30.0398L5.15045 30.0399C5.27835 31.6426 5.3423 32.444 5.57846 33.1126C6.12466 34.659 7.34102 35.8753 8.88741 36.4215C9.55598 36.6577 10.3573 36.7216 11.96 36.8495L11.9602 36.8495C12.5981 36.9005 12.917 36.9259 13.2242 36.9866C13.9283 37.1256 14.5979 37.4029 15.1941 37.8025C15.4542 37.9768 15.6977 38.1844 16.1848 38.5995C17.4086 39.6423 18.0205 40.1638 18.6602 40.4696C20.1399 41.1768 21.8601 41.1768 23.3398 40.4696C23.9795 40.1638 24.5914 39.6423 25.8152 38.5995C26.3023 38.1844 26.5458 37.9768 26.8059 37.8025C27.4021 37.4029 28.0717 37.1256 28.7758 36.9866C29.083 36.9259 29.4019 36.9005 30.0398 36.8495L30.04 36.8495C31.6427 36.7216 32.444 36.6577 33.1126 36.4215C34.659 35.8753 35.8753 34.659 36.4215 33.1126C36.6577 32.444 36.7216 31.6427 36.8495 30.04L36.8495 30.0398C36.9005 29.4019 36.9259 29.083 36.9866 28.7758C37.1256 28.0717 37.4029 27.4021 37.8025 26.8059C37.9768 26.5458 38.1844 26.3023 38.5995 25.8152C39.6423 24.5914 40.1638 23.9795 40.4696 23.3398C41.1768 21.8601 41.1768 20.1399 40.4696 18.6602C40.1638 18.0205 39.6423 17.4086 38.5995 16.1848C38.1844 15.6977 37.9768 15.4542 37.8025 15.1941C37.4029 14.5979 37.1256 13.9283 36.9866 13.2242C36.9259 12.917 36.9005 12.5981 36.8495 11.9602L36.8495 11.96C36.7216 10.3573 36.6577 9.55598 36.4215 8.88741C35.8753 7.34102 34.659 6.12466 33.1126 5.57846C32.444 5.3423 31.6426 5.27835 30.0399 5.15045L30.0398 5.15045C29.4019 5.09954 29.083 5.07409 28.7758 5.01345C28.0717 4.87443 27.4021 4.59708 26.8059 4.19748C26.5458 4.02315 26.3023 3.81562 25.8152 3.40054C24.5914 2.35766 23.9795 1.83621 23.3398 1.53043C21.8601 0.82319 20.1399 0.82319 18.6602 1.53043C18.0205 1.83621 17.4086 2.35767 16.1848 3.40054L16.1847 3.40061Z" fill="url(#paint0_linear_16340_53888)"/>
<path d="M15.1941 4.19748L14.6374 3.3668L15.1941 4.19748ZM16.1847 3.40061L16.8333 4.16173L16.8355 4.15987L16.1847 3.40061ZM16.1848 3.40054L15.5362 2.63943L15.534 2.64129L16.1848 3.40054ZM13.2242 5.01345L13.4179 5.99451H13.4179L13.2242 5.01345ZM11.9602 5.15045L11.8806 4.15362L11.8706 4.15442L11.8607 4.15541L11.9602 5.15045ZM8.88741 5.57846L8.55437 4.63555L8.55437 4.63555L8.88741 5.57846ZM11.9601 5.15045L12.0397 6.14728L12.0497 6.14649L12.0597 6.14549L11.9601 5.15045ZM5.57846 8.88741L4.63555 8.55437L4.63555 8.55437L5.57846 8.88741ZM5.15045 11.9602L4.15541 11.8607L4.15442 11.8706L4.15362 11.8806L5.15045 11.9602ZM5.15045 11.9601L6.14549 12.0597L6.14649 12.0497L6.14728 12.0397L5.15045 11.9601ZM5.01345 13.2242L5.99451 13.4179V13.4179L5.01345 13.2242ZM4.19748 15.1941L3.3668 14.6374L3.3668 14.6374L4.19748 15.1941ZM3.40054 16.1848L4.16166 16.8334L4.16816 16.8258L4.1745 16.818L3.40054 16.1848ZM3.40057 16.1848L2.63946 15.5362L2.63296 15.5438L2.62661 15.5515L3.40057 16.1848ZM1.53043 18.6602L2.43267 19.0915L1.53043 18.6602ZM1.53043 23.3398L0.628193 23.771L0.628194 23.771L1.53043 23.3398ZM3.40054 25.8152L2.63936 26.4639L2.64797 26.4737L3.40054 25.8152ZM4.19748 26.8059L5.02815 26.2491H5.02815L4.19748 26.8059ZM3.40061 25.8153L4.1618 25.1666L4.15319 25.1568L3.40061 25.8153ZM5.01345 28.7758L5.99451 28.5821L5.01345 28.7758ZM5.15045 30.0398L6.1485 29.9775L6.14797 29.9689L6.14728 29.9603L5.15045 30.0398ZM5.57846 33.1126L6.52137 32.7795L5.57846 33.1126ZM5.15045 30.0399L4.1524 30.1022L4.15294 30.1108L4.15362 30.1194L5.15045 30.0399ZM8.88741 36.4215L9.22046 35.4786H9.22046L8.88741 36.4215ZM11.9602 36.8495L12.0397 35.8527L12.034 35.8523L11.9602 36.8495ZM11.96 36.8495L11.8805 37.8464L11.8861 37.8468L11.96 36.8495ZM13.2242 36.9866L13.4179 36.0055H13.4179L13.2242 36.9866ZM15.1941 37.8025L15.7509 36.9718H15.7509L15.1941 37.8025ZM16.1848 38.5995L15.5362 39.3606L16.1848 38.5995ZM18.6602 40.4696L18.229 41.3718H18.229L18.6602 40.4696ZM23.3398 40.4696L23.771 41.3718H23.771L23.3398 40.4696ZM25.8152 38.5995L25.1666 37.8383L25.1666 37.8383L25.8152 38.5995ZM26.8059 37.8025L26.2491 36.9718H26.2491L26.8059 37.8025ZM28.7758 36.9866L28.5821 36.0055H28.5821L28.7758 36.9866ZM30.0398 36.8495L29.9631 35.8525L29.9603 35.8527L30.0398 36.8495ZM33.1126 36.4215L32.7795 35.4786H32.7795L33.1126 36.4215ZM30.04 36.8495L30.1167 37.8466L30.1195 37.8464L30.04 36.8495ZM36.4215 33.1126L35.4786 32.7795V32.7795L36.4215 33.1126ZM36.8495 30.0398L35.8527 29.9603L35.8525 29.9631L36.8495 30.0398ZM36.8495 30.04L37.8464 30.1195L37.8466 30.1167L36.8495 30.04ZM36.9866 28.7758L36.0055 28.5821V28.5821L36.9866 28.7758ZM37.8025 26.8059L36.9718 26.2491V26.2491L37.8025 26.8059ZM38.5995 25.8152L37.8383 25.1666L38.5995 25.8152ZM40.4696 23.3398L41.3718 23.771V23.771L40.4696 23.3398ZM40.4696 18.6602L41.3718 18.229V18.229L40.4696 18.6602ZM38.5995 16.1848L37.8383 16.8334V16.8334L38.5995 16.1848ZM37.8025 15.1941L36.9718 15.7509V15.7509L37.8025 15.1941ZM36.9866 13.2242L36.0055 13.4179V13.4179L36.9866 13.2242ZM36.8495 11.9602L35.8523 12.034L35.8527 12.0397L36.8495 11.9602ZM36.4215 8.88741L35.4786 9.22046V9.22046L36.4215 8.88741ZM36.8495 11.96L37.8468 11.8861L37.8464 11.8805L36.8495 11.96ZM33.1126 5.57846L32.7795 6.52137L33.1126 5.57846ZM30.0398 5.15045L29.9603 6.14728L29.9689 6.14797L29.9775 6.1485L30.0398 5.15045ZM30.0399 5.15045L30.1194 4.15362L30.1108 4.15294L30.1022 4.1524L30.0399 5.15045ZM28.7758 5.01345L28.5821 5.99451L28.7758 5.01345ZM26.8059 4.19748L27.3626 3.3668L27.3626 3.3668L26.8059 4.19748ZM25.8152 3.40054L26.4638 2.63943L26.4638 2.63943L25.8152 3.40054ZM23.3398 1.53043L23.771 0.628194L23.771 0.628193L23.3398 1.53043ZM18.6602 1.53043L19.0915 2.43267V2.43267L18.6602 1.53043ZM15.7509 5.02815C16.0699 4.81431 16.3635 4.56216 16.8333 4.16173L15.5361 2.6395C15.032 3.0691 14.8385 3.23202 14.6374 3.3668L15.7509 5.02815ZM16.8355 4.15987L16.8356 4.1598L15.534 2.64129L15.5339 2.64136L16.8355 4.15987ZM13.4179 5.99451C14.2518 5.82987 15.0448 5.50141 15.7509 5.02815L14.6374 3.3668C14.151 3.69276 13.6049 3.91899 13.0305 4.03238L13.4179 5.99451ZM12.0397 6.14728C12.6552 6.09816 13.041 6.06891 13.4179 5.99451L13.0305 4.03238C12.793 4.07928 12.5409 4.10092 11.8806 4.15362L12.0397 6.14728ZM9.22046 6.52137C9.73541 6.33948 10.3764 6.28001 12.0397 6.14728L11.8806 4.15362C10.3384 4.27669 9.3766 4.34512 8.55437 4.63555L9.22046 6.52137ZM12.0597 6.14549L12.0597 6.14549L11.8607 4.15541L11.8606 4.15541L12.0597 6.14549ZM6.52137 9.22046C6.9669 7.95908 7.95908 6.9669 9.22046 6.52137L8.55437 4.63555C6.72296 5.28242 5.28242 6.72296 4.63555 8.55437L6.52137 9.22046ZM6.14549 12.0597L6.14549 12.0597L4.15541 11.8606L4.15541 11.8607L6.14549 12.0597ZM6.14728 12.0397C6.28001 10.3764 6.33948 9.73541 6.52137 9.22046L4.63555 8.55437C4.34512 9.3766 4.27669 10.3384 4.15362 11.8806L6.14728 12.0397ZM5.99451 13.4179C6.06891 13.041 6.09816 12.6552 6.14728 12.0397L4.15362 11.8806C4.10092 12.5409 4.07928 12.793 4.03238 13.0305L5.99451 13.4179ZM5.02815 15.7509C5.50141 15.0448 5.82987 14.2518 5.99451 13.4179L4.03238 13.0305C3.91899 13.6049 3.69276 14.151 3.3668 14.6374L5.02815 15.7509ZM4.1745 16.818L4.17453 16.818L2.62661 15.5515L2.62659 15.5516L4.1745 16.818ZM4.16168 16.8334C4.56216 16.3635 4.8143 16.0699 5.02815 15.7509L3.3668 14.6374C3.23201 14.8385 3.06909 15.032 2.63946 15.5362L4.16168 16.8334ZM2.43267 19.0915C2.66818 18.5987 3.07938 18.1034 4.16166 16.8334L2.63943 15.5362C1.63595 16.7137 1.00424 17.4422 0.628193 18.229L2.43267 19.0915ZM2.43267 22.9085C1.85578 21.7016 1.85578 20.2984 2.43267 19.0915L0.628193 18.229C-0.209398 19.9814 -0.209398 22.0186 0.628193 23.771L2.43267 22.9085ZM4.16166 25.1666C3.07937 23.8966 2.66818 23.4013 2.43267 22.9085L0.628194 23.771C1.00424 24.5578 1.63594 25.2863 2.63943 26.4638L4.16166 25.1666ZM5.02815 26.2491C4.81431 25.9301 4.56212 25.6365 4.16173 25.1667L2.63949 26.4639C3.06906 26.968 3.23203 27.1616 3.3668 27.3626L5.02815 26.2491ZM4.15319 25.1568L4.15312 25.1567L2.64797 26.4737L2.64804 26.4738L4.15319 25.1568ZM5.99451 28.5821C5.82987 27.7482 5.50141 26.9552 5.02815 26.2491L3.3668 27.3626C3.69276 27.849 3.91899 28.3951 4.03238 28.9695L5.99451 28.5821ZM6.14728 29.9603C6.09816 29.3448 6.06891 28.959 5.99451 28.5821L4.03238 28.9695C4.07928 29.207 4.10092 29.4591 4.15362 30.1194L6.14728 29.9603ZM6.52137 32.7795C6.33948 32.2646 6.28002 31.6236 6.14728 29.9603L4.15362 30.1194C4.27669 31.6616 4.34512 32.6234 4.63555 33.4456L6.52137 32.7795ZM6.1485 29.9775L6.1485 29.9775L4.1524 30.1022L4.1524 30.1022L6.1485 29.9775ZM9.22046 35.4786C7.95908 35.0331 6.9669 34.0409 6.52137 32.7795L4.63555 33.4456C5.28242 35.277 6.72296 36.7176 8.55437 37.3645L9.22046 35.4786ZM12.034 35.8523L12.0339 35.8523L11.8861 37.8468L11.8863 37.8468L12.034 35.8523ZM12.0396 35.8527C10.3763 35.72 9.73539 35.6605 9.22046 35.4786L8.55436 37.3645C9.37658 37.6549 10.3383 37.7233 11.8805 37.8464L12.0396 35.8527ZM13.4179 36.0055C13.0411 35.9311 12.6552 35.9018 12.0397 35.8527L11.8806 37.8464C12.5409 37.8991 12.793 37.9207 13.0305 37.9676L13.4179 36.0055ZM15.7509 36.9718C15.0448 36.4986 14.2518 36.1701 13.4179 36.0055L13.0305 37.9676C13.6049 38.081 14.151 38.3072 14.6374 38.6332L15.7509 36.9718ZM16.8334 37.8383C16.3635 37.4379 16.07 37.1857 15.7509 36.9718L14.6374 38.6332C14.8385 38.768 15.032 38.9309 15.5362 39.3606L16.8334 37.8383ZM19.0915 39.5673C18.5987 39.3318 18.1034 38.9206 16.8334 37.8383L15.5362 39.3606C16.7137 40.3641 17.4422 40.9958 18.229 41.3718L19.0915 39.5673ZM22.9085 39.5673C21.7016 40.1442 20.2984 40.1442 19.0915 39.5673L18.229 41.3718C19.9814 42.2094 22.0186 42.2094 23.771 41.3718L22.9085 39.5673ZM25.1666 37.8383C23.8966 38.9206 23.4013 39.3318 22.9085 39.5673L23.771 41.3718C24.5578 40.9958 25.2863 40.3641 26.4638 39.3606L25.1666 37.8383ZM26.2491 36.9718C25.93 37.1857 25.6365 37.4379 25.1666 37.8383L26.4638 39.3606C26.968 38.9309 27.1615 38.768 27.3626 38.6332L26.2491 36.9718ZM28.5821 36.0055C27.7482 36.1701 26.9552 36.4986 26.2491 36.9718L27.3626 38.6332C27.849 38.3072 28.3951 38.081 28.9695 37.9676L28.5821 36.0055ZM29.9603 35.8527C29.3448 35.9018 28.9589 35.9311 28.5821 36.0055L28.9695 37.9676C29.207 37.9207 29.4591 37.8991 30.1194 37.8464L29.9603 35.8527ZM32.7795 35.4786C32.2646 35.6605 31.6237 35.72 29.9604 35.8527L30.1195 37.8464C31.6617 37.7233 32.6234 37.6549 33.4456 37.3645L32.7795 35.4786ZM29.9633 35.8525L29.9631 35.8525L30.1165 37.8466L30.1167 37.8466L29.9633 35.8525ZM35.4786 32.7795C35.0331 34.0409 34.0409 35.0331 32.7795 35.4786L33.4456 37.3645C35.277 36.7176 36.7176 35.277 37.3645 33.4456L35.4786 32.7795ZM35.8525 29.9631L35.8525 29.9633L37.8466 30.1167L37.8466 30.1165L35.8525 29.9631ZM35.8527 29.9604C35.72 31.6237 35.6605 32.2646 35.4786 32.7795L37.3645 33.4456C37.6549 32.6234 37.7233 31.6617 37.8464 30.1195L35.8527 29.9604ZM36.0055 28.5821C35.9311 28.9589 35.9018 29.3448 35.8527 29.9603L37.8464 30.1194C37.8991 29.4591 37.9207 29.207 37.9676 28.9695L36.0055 28.5821ZM36.9718 26.2491C36.4986 26.9552 36.1701 27.7482 36.0055 28.5821L37.9676 28.9695C38.081 28.3951 38.3072 27.849 38.6332 27.3626L36.9718 26.2491ZM37.8383 25.1666C37.4378 25.6365 37.1857 25.93 36.9718 26.2491L38.6332 27.3626C38.768 27.1615 38.9309 26.968 39.3606 26.4638L37.8383 25.1666ZM39.5673 22.9085C39.3318 23.4013 38.9206 23.8966 37.8383 25.1666L39.3606 26.4638C40.3641 25.2863 40.9958 24.5578 41.3718 23.771L39.5673 22.9085ZM39.5673 19.0915C40.1442 20.2984 40.1442 21.7016 39.5673 22.9085L41.3718 23.771C42.2094 22.0186 42.2094 19.9814 41.3718 18.229L39.5673 19.0915ZM37.8383 16.8334C38.9206 18.1034 39.3318 18.5987 39.5673 19.0915L41.3718 18.229C40.9958 17.4422 40.3641 16.7137 39.3606 15.5362L37.8383 16.8334ZM36.9718 15.7509C37.1857 16.07 37.4379 16.3635 37.8383 16.8334L39.3606 15.5362C38.9309 15.032 38.768 14.8385 38.6332 14.6374L36.9718 15.7509ZM36.0055 13.4179C36.1701 14.2518 36.4986 15.0448 36.9718 15.7509L38.6332 14.6374C38.3072 14.151 38.081 13.6049 37.9676 13.0305L36.0055 13.4179ZM35.8527 12.0397C35.9018 12.6552 35.9311 13.0411 36.0055 13.4179L37.9676 13.0305C37.9207 12.793 37.8991 12.5409 37.8464 11.8806L35.8527 12.0397ZM35.4786 9.22046C35.6605 9.73539 35.72 10.3763 35.8527 12.0396L37.8464 11.8805C37.7233 10.3383 37.6549 9.37658 37.3645 8.55436L35.4786 9.22046ZM35.8523 12.0339L35.8523 12.034L37.8468 11.8863L37.8468 11.8861L35.8523 12.0339ZM32.7795 6.52137C34.0409 6.9669 35.0331 7.95908 35.4786 9.22046L37.3645 8.55437C36.7176 6.72296 35.277 5.28242 33.4456 4.63555L32.7795 6.52137ZM29.9775 6.1485L29.9775 6.1485L30.1022 4.1524L30.1022 4.1524L29.9775 6.1485ZM29.9603 6.14728C31.6236 6.28002 32.2646 6.33948 32.7795 6.52137L33.4456 4.63555C32.6234 4.34512 31.6616 4.27669 30.1194 4.15362L29.9603 6.14728ZM28.5821 5.99451C28.959 6.06891 29.3448 6.09816 29.9603 6.14728L30.1194 4.15362C29.4591 4.10092 29.207 4.07928 28.9695 4.03238L28.5821 5.99451ZM26.2491 5.02815C26.9552 5.50141 27.7482 5.82987 28.5821 5.99451L28.9695 4.03238C28.3951 3.91899 27.849 3.69276 27.3626 3.3668L26.2491 5.02815ZM25.1666 4.16166C25.6365 4.56215 25.93 4.81429 26.2491 5.02815L27.3626 3.3668C27.1615 3.23201 26.968 3.06909 26.4638 2.63943L25.1666 4.16166ZM22.9085 2.43267C23.4013 2.66818 23.8966 3.07937 25.1666 4.16166L26.4638 2.63943C25.2863 1.63594 24.5578 1.00424 23.771 0.628194L22.9085 2.43267ZM19.0915 2.43267C20.2984 1.85578 21.7016 1.85578 22.9085 2.43267L23.771 0.628193C22.0186 -0.209398 19.9814 -0.209398 18.229 0.628193L19.0915 2.43267ZM16.8334 4.16166C18.1034 3.07938 18.5987 2.66818 19.0915 2.43267L18.229 0.628193C17.4422 1.00424 16.7137 1.63595 15.5362 2.63943L16.8334 4.16166Z" fill="#FFCC00" mask="url(#path-1-outside-1_16340_53888)"/>
<defs>
<linearGradient id="paint0_linear_16340_53888" x1="21" y1="41" x2="21" y2="1" gradientUnits="userSpaceOnUse">
<stop stop-color="#E89D14"/>
<stop offset="1" stop-color="#FFCC00"/>
</linearGradient>
</defs>
</svg>
