<svg width="25" height="24" viewBox="0 0 25 24" fill="none" xmlns="http://www.w3.org/2000/svg">
<path d="M20.582 3.01677L20.6168 4.01616L20.582 3.01677ZM17 3.48647L16.7132 2.52848L17 3.48647ZM14.1738 4.80178L13.6729 3.93627L13.6729 3.93627L14.1738 4.80178ZM4.4824 3.07391L4.42106 4.07203L4.4824 3.07391ZM7.5 3.48647L7.75515 2.51956L7.5 3.48647ZM10.7823 4.87448L10.3148 5.7585L10.7823 4.87448ZM14.1276 20.0683L14.598 20.9507V20.9507L14.1276 20.0683ZM17.5 18.6324L17.2449 17.6655L17.5 18.6324ZM20.4851 18.2218L20.5476 19.2199L20.4851 18.2218ZM10.8724 20.0683L10.402 20.9507L10.402 20.9507L10.8724 20.0683ZM7.5 18.6324L7.75515 17.6655L7.5 18.6324ZM4.51486 18.2218L4.45244 19.2199H4.45244L4.51486 18.2218ZM3.5 16.1426V4.99683H1.5V16.1426H3.5ZM23.5 16.1426V4.93222H21.5V16.1426H23.5ZM20.5472 2.01738C19.4056 2.05714 17.8905 2.17604 16.7132 2.52848L17.2868 4.44446C18.2034 4.17006 19.5012 4.05502 20.6168 4.01616L20.5472 2.01738ZM16.7132 2.52848C15.689 2.83509 14.5491 3.4292 13.6729 3.93627L14.6747 5.66728C15.5215 5.17721 16.4957 4.68129 17.2868 4.44446L16.7132 2.52848ZM4.42106 4.07203C5.38358 4.13119 6.45741 4.24558 7.24485 4.45337L7.75515 2.51956C6.76957 2.25949 5.53397 2.13665 4.54375 2.0758L4.42106 4.07203ZM7.24485 4.45337C8.17794 4.69959 9.34111 5.24363 10.3148 5.7585L11.2497 3.99046C10.2511 3.46243 8.92048 2.82707 7.75515 2.51956L7.24485 4.45337ZM14.598 20.9507C15.5862 20.424 16.7922 19.8534 17.7551 19.5993L17.2449 17.6655C16.0449 17.9821 14.668 18.647 13.6572 19.1858L14.598 20.9507ZM17.7551 19.5993C18.5335 19.3939 19.5924 19.2796 20.5476 19.2199L20.4227 17.2238C19.4391 17.2853 18.2199 17.4082 17.2449 17.6655L17.7551 19.5993ZM11.3428 19.1858C10.332 18.647 8.95512 17.9821 7.75515 17.6655L7.24485 19.5993C8.20778 19.8534 9.41383 20.424 10.402 20.9507L11.3428 19.1858ZM7.75515 17.6655C6.78013 17.4082 5.56092 17.2853 4.57728 17.2238L4.45244 19.2199C5.40764 19.2796 6.46645 19.3939 7.24485 19.5993L7.75515 17.6655ZM21.5 16.1426C21.5 16.6866 21.0443 17.1849 20.4227 17.2238L20.5476 19.2199C22.1436 19.1201 23.5 17.8206 23.5 16.1426H21.5ZM23.5 4.93222C23.5 3.33862 22.2283 1.95882 20.5472 2.01738L20.6168 4.01616C21.0792 4.00006 21.5 4.38091 21.5 4.93222H23.5ZM1.5 16.1426C1.5 17.8206 2.85636 19.1201 4.45244 19.2199L4.57728 17.2238C3.95573 17.1849 3.5 16.6866 3.5 16.1426H1.5ZM13.6572 19.1858C12.9384 19.569 12.0616 19.569 11.3428 19.1858L10.402 20.9507C11.7088 21.6473 13.2912 21.6473 14.598 20.9507L13.6572 19.1858ZM13.6729 3.93627C12.9283 4.36725 12.0013 4.38788 11.2497 3.99046L10.3148 5.7585C11.6843 6.48264 13.3428 6.43813 14.6747 5.66728L13.6729 3.93627ZM3.5 4.99683C3.5 4.4333 3.94114 4.04253 4.42106 4.07203L4.54375 2.0758C2.83146 1.97056 1.5 3.36401 1.5 4.99683H3.5Z" fill="#F2F2F2"/>
<path d="M12.5 5.5V20.5" stroke="#F2F2F2" stroke-width="2"/>
</svg>
