<svg width="16" height="16" viewBox="0 0 16 16" fill="none" xmlns="http://www.w3.org/2000/svg">
<path d="M13.5 7.175V8C13.5 10.5927 13.5 11.8891 12.6945 12.6945C11.8891 13.5 10.5927 13.5 8 13.5C5.40728 13.5 4.11091 13.5 3.30546 12.6945C2.5 11.8891 2.5 10.5927 2.5 8C2.5 5.40728 2.5 4.11091 3.30546 3.30546C4.11091 2.5 5.40728 2.5 8 2.5H8.825" stroke="white" stroke-linecap="round"/>
<path d="M10.5586 3.30028L10.9155 2.94343C11.5067 2.35219 12.4653 2.35219 13.0566 2.94343C13.6478 3.53468 13.6478 4.49328 13.0566 5.08453L12.6997 5.44137M10.5586 3.30028C10.5586 3.30028 10.6032 4.05859 11.2723 4.72768C11.9414 5.39677 12.6997 5.44137 12.6997 5.44137M10.5586 3.30028L7.27797 6.58096C7.05576 6.80317 6.94465 6.91427 6.8491 7.03678C6.73639 7.18129 6.63976 7.33764 6.56091 7.50308C6.49407 7.64333 6.44438 7.79239 6.34501 8.09052L6.02685 9.045M12.6997 5.44137L9.41906 8.72205C9.19685 8.94426 9.08575 9.05536 8.96324 9.15091C8.81873 9.26363 8.66237 9.36026 8.49693 9.43911C8.35669 9.50595 8.20762 9.55563 7.9095 9.65501L6.95502 9.97317M6.95502 9.97317L6.33742 10.179C6.19071 10.2279 6.02896 10.1898 5.91961 10.0804C5.81026 9.97106 5.77208 9.80931 5.82098 9.6626L6.02685 9.045M6.95502 9.97317L6.02685 9.045" stroke="white"/>
</svg>
