<svg width="24" height="24" viewBox="0 0 24 24" fill="none" xmlns="http://www.w3.org/2000/svg">
<path d="M8.96173 19.626L9.58082 18.8406L8.96173 19.626ZM12 6.21572L11.2795 6.90919C11.468 7.10505 11.7282 7.21572 12 7.21572C12.2718 7.21572 12.532 7.10505 12.7205 6.90919L12 6.21572ZM15.0383 19.626L15.6574 20.4113L15.0383 19.626ZM9.58082 18.8406C8.05033 17.6341 6.42071 16.4876 5.12521 15.0289C3.864 13.6087 3 11.9716 3 9.85219H1C1 12.5957 2.14571 14.6858 3.62979 16.3569C5.07958 17.9894 6.93083 19.2983 8.34265 20.4113L9.58082 18.8406ZM3 9.85219C3 7.79485 4.16214 6.08254 5.72829 5.36665C7.2314 4.67958 9.28552 4.83751 11.2795 6.90919L12.7205 5.52225C10.2146 2.91877 7.26876 2.46346 4.89683 3.54768C2.58794 4.60308 1 7.04658 1 9.85219H3ZM8.34265 20.4113C8.85258 20.8133 9.41592 21.255 9.99069 21.5909C10.5651 21.9265 11.2461 22.2151 12 22.2151V20.2151C11.7539 20.2151 11.4349 20.1183 10.9997 19.8641C10.565 19.61 10.1091 19.2571 9.58082 18.8406L8.34265 20.4113ZM15.6574 20.4113C17.0692 19.2983 18.9204 17.9894 20.3702 16.3569C21.8543 14.6858 23 12.5957 23 9.85219H21C21 11.9716 20.136 13.6087 18.8748 15.0289C17.5793 16.4876 15.9497 17.6341 14.4192 18.8406L15.6574 20.4113ZM23 9.85219C23 7.04658 21.4121 4.60308 19.1032 3.54768C16.7312 2.46346 13.7854 2.91877 11.2795 5.52225L12.7205 6.90919C14.7145 4.83751 16.7686 4.67958 18.2717 5.36665C19.8379 6.08254 21 7.79485 21 9.85219H23ZM14.4192 18.8406C13.8909 19.2571 13.435 19.61 13.0003 19.8641C12.5651 20.1183 12.2461 20.2151 12 20.2151V22.2151C12.7539 22.2151 13.4349 21.9265 14.0093 21.5909C14.5841 21.255 15.1474 20.8133 15.6574 20.4113L14.4192 18.8406Z" fill="#F2F2F2"/>
</svg>
