<svg width="24" height="24" viewBox="0 0 24 24" fill="none" xmlns="http://www.w3.org/2000/svg">
<path fill-rule="evenodd" clip-rule="evenodd" d="M18 8C19.1046 8 20 7.10457 20 6C20 4.89543 19.1046 4 18 4C16.8954 4 16 4.89543 16 6C16 7.10457 16.8954 8 18 8ZM18 10C20.2091 10 22 8.20914 22 6C22 3.79086 20.2091 2 18 2C15.7909 2 14 3.79086 14 6C14 6.12586 14.0058 6.25036 14.0172 6.37324L8.68806 9.03781C7.97787 8.39296 7.03483 8 6 8C3.79086 8 2 9.79086 2 12C2 14.2091 3.79086 16 6 16C7.03483 16 7.97787 15.607 8.68806 14.9622L14.0172 17.6268C14.0058 17.7496 14 17.8741 14 18C14 20.2091 15.7909 22 18 22C20.2091 22 22 20.2091 22 18C22 15.7909 20.2091 14 18 14C16.6322 14 15.4247 14.6865 14.7034 15.7338L9.79154 13.2779C9.92673 12.8766 10 12.4469 10 12C10 11.5531 9.92673 11.1234 9.79154 10.7221L14.7034 8.26619C15.4247 9.31347 16.6322 10 18 10ZM18 20C19.1046 20 20 19.1046 20 18C20 16.8954 19.1046 16 18 16C16.8954 16 16 16.8954 16 18C16 19.1046 16.8954 20 18 20ZM8 12C8 13.1046 7.10457 14 6 14C4.89543 14 4 13.1046 4 12C4 10.8954 4.89543 10 6 10C7.10457 10 8 10.8954 8 12Z" fill="#F2F2F2"/>
</svg>
