<svg width="107" height="26" viewBox="0 0 107 26" fill="none" xmlns="http://www.w3.org/2000/svg">
<path fill-rule="evenodd" clip-rule="evenodd" d="M10.0455 0H0L8.30966 24.375L8.86364 26H10.6364L15.0313 14.625L18.3551 24.375L18.9091 26H20.6818L25.0767 14.625L30.7273 0H27.7727L23.6918 10.5625L20.3679 0.8125L20.0909 0H17.7273L13.6463 10.5625L10.0455 0ZM35.4546 7.8L39 0H41.9546L53.7728 26H43.7273L41.9367 22.0606H31.927L30.1364 26H27.1818L35.4546 7.8ZM36.9318 11.05L40.8623 19.697H33.0014L36.9318 11.05ZM91.591 0L88.0455 7.8L79.7728 26H82.7273L84.5179 22.0606H94.5276L96.3182 26H106.364L94.5455 0H91.591ZM93.4532 19.697L89.5228 11.05L85.5923 19.697H93.4532ZM64.4091 0H54.9546V26H64.4091V14.4444L69.1364 26H79.1819L71 6L77.4091 0H73.2728L64.4091 8.29787V0Z" fill="#15B088"/>
</svg>
