<svg width="16" height="16" viewBox="0 0 16 16" fill="none" xmlns="http://www.w3.org/2000/svg">
<path d="M3.5 9.5V13C3.5 13.2761 3.27614 13.5 3 13.5V13.5C2.17157 13.5 1.5 12.8284 1.5 12V11.5C1.5 10.3954 2.39543 9.5 3.5 9.5V9.5ZM3.5 9.5V7C3.5 4.51472 5.51472 2.5 8 2.5V2.5C10.4853 2.5 12.5 4.51472 12.5 7V9.5M12.5 9.5V12.8333C12.5 13.2015 12.7985 13.5 13.1667 13.5V13.5C13.903 13.5 14.5 12.903 14.5 12.1667V11.5C14.5 10.3954 13.6046 9.5 12.5 9.5V9.5Z" stroke="white" stroke-linecap="round"/>
<path d="M10.5 9.5V13.5M5.5 9.5V13.5" stroke="white" stroke-linecap="round"/>
</svg>
