<svg width="24" height="24" viewBox="0 0 24 24" fill="none" xmlns="http://www.w3.org/2000/svg">
<path d="M13.5001 2.00006C13.5001 2.00006 15.8335 2.21219 18.8034 5.18204C21.7732 8.15189 21.9853 10.4853 21.9853 10.4853" stroke="#999999" stroke-width="2" stroke-linecap="round"/>
<path d="M14.207 5.53564C14.207 5.53564 15.197 5.81849 16.6819 7.30341C18.1668 8.78834 18.4497 9.77829 18.4497 9.77829" stroke="#999999" stroke-width="2" stroke-linecap="round"/>
<path d="M15.1007 15.0272L14.3757 14.3385L15.1007 15.0272ZM15.5562 14.5477L16.2812 15.2364L15.5562 14.5477ZM17.9728 14.2123L17.474 15.079L17.474 15.079L17.9728 14.2123ZM19.8833 15.312L19.3845 16.1787L19.8833 15.312ZM20.4217 18.7584L21.1467 19.4471L20.4217 18.7584ZM19.0011 20.254L18.2761 19.5653L19.0011 20.254ZM17.6763 20.9631L17.7745 21.9583L17.6763 20.9631ZM7.81536 16.4752L8.54042 15.7865L7.81536 16.4752ZM3.00289 6.96594L2.00432 7.01953L2.00432 7.01953L3.00289 6.96594ZM9.47752 8.50311L10.2026 9.1918V9.1918L9.47752 8.50311ZM9.63424 5.6931L10.4508 5.11579V5.11579L9.63424 5.6931ZM8.37326 3.90961L7.55673 4.48693L7.55673 4.48693L8.37326 3.90961ZM5.26145 3.60864L5.98651 4.29733L5.98651 4.29733L5.26145 3.60864ZM3.69185 5.26114L2.96679 4.57245L2.96679 4.57245L3.69185 5.26114ZM11.0631 13.0559L11.7882 12.3672L11.0631 13.0559ZM15.8258 15.7159L16.2812 15.2364L14.8311 13.859L14.3757 14.3385L15.8258 15.7159ZM17.474 15.079L19.3845 16.1787L20.3822 14.4453L18.4717 13.3456L17.474 15.079ZM19.6966 18.0697L18.2761 19.5653L19.7262 20.9427L21.1467 19.4471L19.6966 18.0697ZM17.5781 19.9679C16.2079 20.1032 12.5437 20.0012 8.54042 15.7865L7.0903 17.1639C11.5806 21.8913 15.8858 22.1447 17.7745 21.9583L17.5781 19.9679ZM8.54042 15.7865C4.70713 11.7508 4.07945 8.36559 4.00145 6.91234L2.00432 7.01953C2.10662 8.92532 2.9143 12.7673 7.0903 17.1639L8.54042 15.7865ZM9.91576 9.49376L10.2026 9.1918L8.75246 7.81442L8.46565 8.11639L9.91576 9.49376ZM10.4508 5.11579L9.18978 3.3323L7.55673 4.48693L8.81772 6.27041L10.4508 5.11579ZM4.53639 2.91995L2.96679 4.57245L4.41691 5.94982L5.98651 4.29733L4.53639 2.91995ZM9.1907 8.80507C8.46565 8.11639 8.46472 8.11736 8.4638 8.11834C8.46349 8.11867 8.46255 8.11966 8.46193 8.12032C8.46067 8.12166 8.4594 8.12302 8.45811 8.12441C8.45552 8.12719 8.45287 8.13007 8.45016 8.13305C8.44474 8.13902 8.43906 8.14539 8.43314 8.15219C8.42132 8.16578 8.40858 8.18106 8.39512 8.19806C8.36822 8.23205 8.33846 8.27299 8.30764 8.32114C8.24583 8.41774 8.18044 8.5424 8.12559 8.69652C8.01376 9.01079 7.9571 9.41569 8.02935 9.90881C8.17072 10.8737 8.7941 12.1191 10.3381 13.7446L11.7882 12.3672C10.3771 10.8817 10.0643 10.0016 10.0082 9.61887C9.9946 9.52591 9.99594 9.46211 9.99955 9.42393C10.0032 9.3859 10.0095 9.36803 10.0099 9.36702C10.0103 9.36568 10.0064 9.377 9.99227 9.39911C9.98529 9.41002 9.9759 9.42343 9.96341 9.43921C9.95717 9.4471 9.95014 9.4556 9.94223 9.46469C9.93828 9.46923 9.93411 9.47393 9.9297 9.47877C9.9275 9.4812 9.92523 9.48366 9.92291 9.48615C9.92175 9.4874 9.92057 9.48866 9.91938 9.48993C9.91879 9.49056 9.91788 9.49152 9.91758 9.49184C9.91668 9.4928 9.91576 9.49376 9.1907 8.80507ZM10.3381 13.7446C11.876 15.3638 13.0731 16.0399 14.0297 16.1953C14.5234 16.2754 14.9335 16.2127 15.2523 16.0869C15.4076 16.0257 15.5319 15.9532 15.6269 15.8858C15.6743 15.8522 15.7143 15.8199 15.7473 15.791C15.7638 15.7765 15.7785 15.7629 15.7916 15.7503C15.7981 15.744 15.8042 15.738 15.8099 15.7322C15.8127 15.7294 15.8155 15.7266 15.8181 15.7238C15.8195 15.7225 15.8208 15.7211 15.822 15.7198C15.8227 15.7191 15.8236 15.7182 15.8239 15.7178C15.8249 15.7169 15.8258 15.7159 15.1007 15.0272C14.3757 14.3385 14.3766 14.3376 14.3775 14.3366C14.3778 14.3363 14.3787 14.3353 14.3793 14.3347C14.3805 14.3334 14.3817 14.3322 14.3829 14.331C14.3853 14.3285 14.3876 14.3261 14.3899 14.3238C14.3946 14.3191 14.3991 14.3147 14.4035 14.3104C14.4123 14.302 14.4206 14.2944 14.4284 14.2875C14.444 14.2738 14.4579 14.263 14.4699 14.2544C14.4942 14.2372 14.5108 14.2294 14.5185 14.2264C14.5419 14.2172 14.4967 14.2449 14.3504 14.2211C14.027 14.1686 13.2052 13.8591 11.7882 12.3672L10.3381 13.7446ZM9.18978 3.3323C8.09265 1.78057 5.8798 1.5056 4.53639 2.91995L5.98651 4.29733C6.39212 3.8703 7.12792 3.88043 7.55673 4.48693L9.18978 3.3323ZM4.00145 6.91234C3.98462 6.59877 4.11959 6.26284 4.41691 5.94982L2.96679 4.57245C2.39686 5.17247 1.95068 6.02013 2.00432 7.01953L4.00145 6.91234ZM18.2761 19.5653C18.0244 19.8303 17.7846 19.9475 17.5781 19.9679L17.7745 21.9583C18.5988 21.8769 19.2554 21.4383 19.7262 20.9427L18.2761 19.5653ZM10.2026 9.1918C11.2572 8.08152 11.3263 6.35406 10.4508 5.11579L8.81772 6.27041C9.1751 6.77587 9.11099 7.43696 8.75246 7.81442L10.2026 9.1918ZM19.3845 16.1787C20.07 16.5732 20.194 17.546 19.6966 18.0697L21.1467 19.4471C22.5671 17.9518 22.1504 15.4631 20.3822 14.4453L19.3845 16.1787ZM16.2812 15.2364C16.5853 14.9163 17.0589 14.8401 17.474 15.079L18.4717 13.3456C17.2756 12.6572 15.7863 12.8534 14.8311 13.859L16.2812 15.2364Z" fill="#999999"/>
</svg>
