<svg width="122" height="122" viewBox="0 0 122 122" fill="none" xmlns="http://www.w3.org/2000/svg">
<rect x="1.5" y="1.5" width="119" height="119" stroke="#333333"/>
<path fill-rule="evenodd" clip-rule="evenodd" d="M0 0H16V3H3V16H0V0Z" fill="#15B088"/>
<path fill-rule="evenodd" clip-rule="evenodd" d="M0 122H16V119H3V106H0V122Z" fill="#15B088"/>
<path fill-rule="evenodd" clip-rule="evenodd" d="M122 0H106V3H119V16H122V0Z" fill="#15B088"/>
<path fill-rule="evenodd" clip-rule="evenodd" d="M122 122H106V119H119V106H122V122Z" fill="#15B088"/>
<path d="M10.0741 10.0741H38.5926V38.5926H10.0741V10.0741ZM42.6667 10.0741H54.8889V14.1482H50.8148V18.2222H46.7408V22.2963H42.6667V10.0741ZM58.963 10.0741H75.2593V18.2222H71.1852V22.2963H79.3333V26.3704H75.2593V30.4445H71.1852V26.3704H67.1111V22.2963H63.037V14.1482H58.963V10.0741ZM83.4074 10.0741H111.926V38.5926H83.4074V10.0741ZM14.1482 14.1482V34.5185H34.5185V14.1482H14.1482ZM87.4815 14.1482V34.5185H107.852V14.1482H87.4815ZM18.2222 18.2222H30.4445V30.4445H18.2222V18.2222ZM91.5556 18.2222H103.778V30.4445H91.5556V18.2222ZM50.8148 22.2963H54.8889V30.4445H58.963V34.5185H54.8889V38.5926H58.963V46.7408H63.037V54.8889H54.8889V50.8148H50.8148V46.7408H54.8889V42.6667H50.8148V30.4445H42.6667V26.3704H50.8148V22.2963ZM58.963 26.3704H67.1111V30.4445H71.1852V38.5926H75.2593V34.5185H79.3333V42.6667H83.4074V46.7408H79.3333V50.8148H75.2593V58.963H71.1852V63.037H63.037V58.963H67.1111V46.7408H63.037V42.6667H67.1111V34.5185H63.037V30.4445H58.963V26.3704ZM42.6667 34.5185H46.7408V38.5926H42.6667V34.5185ZM58.963 34.5185H63.037V38.5926H58.963V34.5185ZM10.0741 42.6667H14.1482V50.8148H10.0741V42.6667ZM22.2963 42.6667H46.7408V46.7408H42.6667V50.8148H38.5926V46.7408H30.4445V54.8889H26.3704V63.037H22.2963V71.1852H14.1482V79.3333H10.0741V63.037H18.2222V54.8889H22.2963V42.6667ZM71.1852 42.6667V46.7408H75.2593V42.6667H71.1852ZM91.5556 42.6667H95.6296V46.7408H99.7037V42.6667H111.926V46.7408H107.852V50.8148H99.7037V54.8889H107.852V50.8148H111.926V63.037H107.852V58.963H95.6296V50.8148H91.5556V58.963H87.4815V63.037H83.4074V54.8889H79.3333V50.8148H87.4815V46.7408H91.5556V42.6667ZM14.1482 50.8148H18.2222V54.8889H14.1482V50.8148ZM34.5185 50.8148H38.5926V54.8889H34.5185V50.8148ZM46.7408 50.8148H50.8148V54.8889H46.7408V50.8148ZM30.4445 54.8889H34.5185V58.963H30.4445V54.8889ZM42.6667 54.8889H46.7408V58.963H42.6667V54.8889ZM34.5185 58.963H42.6667V63.037H46.7408V58.963H50.8148V67.1111H46.7408V71.1852H34.5185V75.2593H26.3704V71.1852H30.4445V67.1111H26.3704V63.037H34.5185V67.1111H38.5926V63.037H34.5185V58.963ZM54.8889 58.963H58.963V63.037H54.8889V58.963ZM75.2593 58.963H79.3333V71.1852H75.2593V75.2593H79.3333V71.1852H83.4074V75.2593H87.4815V71.1852H91.5556V75.2593H95.6296V95.6296H87.4815V99.7037H83.4074V103.778H91.5556V99.7037H103.778V95.6296H107.852V83.4074H111.926V111.926H107.852V107.852H99.7037V103.778H95.6296V107.852H87.4815V111.926H83.4074V107.852H79.3333V103.778H75.2593V99.7037H79.3333V95.6296H71.1852V87.4815H75.2593V83.4074H71.1852V75.2593H63.037V79.3333H58.963V83.4074H54.8889V75.2593H58.963V71.1852H67.1111V67.1111H71.1852V63.037H75.2593V58.963ZM58.963 63.037H63.037V67.1111H58.963V63.037ZM91.5556 63.037H95.6296V67.1111H103.778V63.037H107.852V67.1111H111.926V75.2593H107.852V71.1852H103.778V75.2593H107.852V83.4074H99.7037V75.2593H95.6296V71.1852H91.5556V63.037ZM50.8148 67.1111H54.8889V71.1852H50.8148V67.1111ZM46.7408 71.1852H50.8148V75.2593H46.7408V71.1852ZM18.2222 75.2593H26.3704V79.3333H18.2222V75.2593ZM34.5185 75.2593H46.7408V95.6296H50.8148V99.7037H42.6667V79.3333H34.5185V75.2593ZM79.3333 79.3333V91.5556H91.5556V79.3333H79.3333ZM10.0741 83.4074H38.5926V111.926H10.0741V83.4074ZM58.963 83.4074H71.1852V87.4815H67.1111V111.926H42.6667V107.852H46.7408V103.778H50.8148V107.852H54.8889V103.778H50.8148V99.7037H58.963V103.778H63.037V99.7037H58.963V95.6296H63.037V87.4815H58.963V83.4074ZM83.4074 83.4074H87.4815V87.4815H83.4074V83.4074ZM14.1482 87.4815V107.852H34.5185V87.4815H14.1482ZM54.8889 87.4815H58.963V95.6296H54.8889V87.4815ZM18.2222 91.5556H30.4445V103.778H18.2222V91.5556ZM71.1852 107.852H79.3333V111.926H71.1852V107.852ZM95.6296 107.852H99.7037V111.926H95.6296V107.852Z" fill="white"/>
</svg>
