<svg width="12" height="12" viewBox="0 0 12 12" fill="none" xmlns="http://www.w3.org/2000/svg">
<path d="M4.2919 2.04503C5.05189 0.681675 5.43188 0 6 0C6.56812 0 6.94811 0.681675 7.7081 2.04502L7.90472 2.39774C8.12069 2.78516 8.22867 2.97887 8.39703 3.10668C8.5654 3.2345 8.77509 3.28194 9.19447 3.37683L9.57628 3.46322C11.0521 3.79713 11.79 3.96409 11.9655 4.52864C12.1411 5.09319 11.6381 5.68144 10.6319 6.85795L10.3716 7.16233C10.0857 7.49666 9.94279 7.66383 9.87848 7.87063C9.81417 8.07743 9.83578 8.30047 9.87901 8.74653L9.91836 9.15264C10.0705 10.7224 10.1465 11.5072 9.68691 11.8561C9.22729 12.205 8.5364 11.8869 7.1546 11.2507L6.79711 11.0861C6.40445 10.9053 6.20811 10.8149 6 10.8149C5.79189 10.8149 5.59556 10.9053 5.20289 11.0861L4.8454 11.2507C3.46361 11.8869 2.77271 12.205 2.31309 11.8561C1.85347 11.5072 1.92953 10.7224 2.08164 9.15264L2.12099 8.74653C2.16422 8.30047 2.18583 8.07743 2.12152 7.87063C2.05721 7.66383 1.91426 7.49666 1.62835 7.16233L1.36806 6.85796C0.361949 5.68144 -0.141105 5.09319 0.0344526 4.52864C0.21001 3.96409 0.947914 3.79713 2.42372 3.46322L2.80553 3.37683C3.22491 3.28194 3.4346 3.2345 3.60297 3.10668C3.77133 2.97887 3.87932 2.78516 4.09528 2.39774L4.2919 2.04503Z" fill="#FFCC00"/>
</svg>
