<svg width="16" height="16" viewBox="0 0 16 16" fill="none" xmlns="http://www.w3.org/2000/svg">
<path d="M4.61541 13.4579L4.31309 13.8561L4.61541 13.4579C4.56711 13.4212 4.4849 13.3312 4.46747 12.9399C4.45001 12.5479 4.5017 12.0018 4.57931 11.2009L4.61866 10.7948C4.62106 10.77 4.62347 10.7454 4.62586 10.7211C4.6625 10.3485 4.69402 10.0278 4.59897 9.72216C4.50329 9.41449 4.29494 9.17157 4.05559 8.89251C4.03997 8.87429 4.02422 8.85592 4.00835 8.83737L3.74806 8.53299C3.23427 7.93218 2.88666 7.5237 2.68127 7.19744C2.47928 6.87658 2.48934 6.74966 2.5119 6.67711C2.53276 6.61002 2.58771 6.50747 2.92482 6.37462C3.27134 6.23806 3.77917 6.12169 4.53406 5.95089L4.91587 5.8645C4.9399 5.85907 4.96378 5.85371 4.98749 5.84838C5.33522 5.77034 5.64821 5.70009 5.90529 5.50493C6.15943 5.31201 6.31676 5.02869 6.49517 4.70744C6.50734 4.68553 6.51961 4.66344 6.53201 4.64119L6.72863 4.28848C7.11677 3.59219 7.38139 3.12015 7.61487 2.81525C7.84811 2.51069 7.95572 2.5 8 2.5C8.04428 2.5 8.15189 2.51069 8.38513 2.81525C8.61862 3.12015 8.88323 3.59219 9.27137 4.28848L9.67565 4.06311L9.27137 4.28848L9.46799 4.64119C9.48039 4.66344 9.49266 4.68552 9.50483 4.70743C9.68324 5.02869 9.84057 5.31201 10.0947 5.50493C10.3518 5.70009 10.6648 5.77034 11.0125 5.84838C11.0362 5.85371 11.0601 5.85906 11.0841 5.8645L11.4659 5.95089C12.2208 6.12169 12.7287 6.23806 13.0752 6.37462C13.4123 6.50747 13.4672 6.61002 13.4881 6.67711C13.5107 6.74966 13.5207 6.87658 13.3187 7.19744C13.1133 7.5237 12.7657 7.93218 12.2519 8.53299L11.9916 8.83737L12.3716 9.16233L11.9916 8.83737C11.9758 8.85592 11.96 8.87429 11.9444 8.89251C11.7051 9.17157 11.4967 9.41449 11.401 9.72216L11.8785 9.87063L11.401 9.72216C11.306 10.0278 11.3375 10.3485 11.3741 10.7211C11.3765 10.7454 11.3789 10.77 11.3813 10.7948L11.4207 11.2009C11.4983 12.0018 11.55 12.5479 11.5325 12.9399C11.5151 13.3312 11.4329 13.4212 11.3846 13.4579C11.3445 13.4884 11.255 13.5427 10.9043 13.4422C10.5472 13.3399 10.0706 13.122 9.36371 12.7965L9.00623 12.6319L8.79711 13.0861L9.00622 12.6319C8.98324 12.6214 8.96043 12.6108 8.93776 12.6003C8.61446 12.4507 8.3209 12.3149 8 12.3149C7.67911 12.3149 7.38554 12.4507 7.06225 12.6003C7.03958 12.6108 7.01676 12.6213 6.99378 12.6319L7.20289 13.0861L6.99378 12.6319L6.63629 12.7965C5.92944 13.122 5.45285 13.3399 5.09571 13.4422C4.74499 13.5427 4.65555 13.4884 4.61541 13.4579Z" stroke="#FFCC00" stroke-linecap="round" stroke-linejoin="round"/>
</svg>
