<svg width="16" height="16" viewBox="0 0 16 16" fill="none" xmlns="http://www.w3.org/2000/svg">
<path d="M11.0912 6.78786C11.2433 7.00395 11.5374 7.06431 11.7623 6.92565L14.3148 5.35251C14.3598 5.33578 14.4107 5.34331 14.4486 5.37254C14.4898 5.4043 14.5075 5.45516 14.497 5.50302L14.497 5.503L14.4953 5.51114L12.9055 13.3979C12.8917 13.4554 12.8385 13.5 12.7727 13.5H3.22729C3.16153 13.5 3.10829 13.4554 3.09446 13.3979L1.50469 5.51114L1.50476 5.51112L1.50298 5.50301C1.4925 5.45516 1.51022 5.4043 1.55138 5.37254C1.58926 5.34331 1.64024 5.33578 1.68523 5.35251L4.23766 6.92565C4.46264 7.06431 4.75668 7.00395 4.90882 6.78786L7.889 2.55533C7.91407 2.52132 7.95505 2.5 8 2.5C8.04495 2.5 8.08593 2.52132 8.111 2.55533L11.0912 6.78786Z" stroke="#FFCC00" stroke-linejoin="round"/>
<circle cx="8" cy="9" r="1.5" stroke="#FFCC00"/>
</svg>
