
<svg width="35" height="35" viewBox="0 0 35 35" fill="none" xmlns="http://www.w3.org/2000/svg">
<g filter="url(#filter0_d_2906_37719)">
<path d="M23 0C29.6274 0 35 5.37258 35 12V29.146C31.8622 30.9611 28.2191 32 24.3333 32C12.5513 32 3 22.4487 3 10.6667C3 6.78094 4.03887 3.13785 5.85402 0H23Z" fill="white"/>
</g>
<path fill-rule="evenodd" clip-rule="evenodd" d="M21.6473 5.58079C21.498 5.3732 21.2569 5.25 21 5.25C20.7431 5.25 20.502 5.3732 20.3527 5.58079L16.625 10.875L13.4012 8.88808C13.1273 8.7521 12.7992 8.78429 12.5574 8.97087C12.3156 9.15745 12.2031 9.46529 12.2682 9.76242L14.2568 19.6279C14.3363 19.991 14.6599 20.25 15.0341 20.25H26.9659C27.3401 20.25 27.6637 19.991 27.7432 19.6279L29.7318 9.76242C29.7969 9.46529 29.6844 9.15745 29.4426 8.97087C29.2008 8.78429 28.8727 8.7521 28.5988 8.88808L25.375 10.875L21.6473 5.58079ZM21 16.5C22.3807 16.5 23.5 15.3807 23.5 14C23.5 12.6193 22.3807 11.5 21 11.5C19.6193 11.5 18.5 12.6193 18.5 14C18.5 15.3807 19.6193 16.5 21 16.5Z" fill="url(#paint0_linear_2906_37719)"/>
<defs>
<filter id="filter0_d_2906_37719" x="0" y="-1" width="36" height="36" filterUnits="userSpaceOnUse" color-interpolation-filters="sRGB">
<feFlood flood-opacity="0" result="BackgroundImageFix"/>
<feColorMatrix in="SourceAlpha" type="matrix" values="0 0 0 0 0 0 0 0 0 0 0 0 0 0 0 0 0 0 127 0" result="hardAlpha"/>
<feOffset dx="-1" dy="1"/>
<feGaussianBlur stdDeviation="1"/>
<feComposite in2="hardAlpha" operator="out"/>
<feColorMatrix type="matrix" values="0 0 0 0 0 0 0 0 0 0 0 0 0 0 0 0 0 0 0.15 0"/>
<feBlend mode="normal" in2="BackgroundImageFix" result="effect1_dropShadow_2906_37719"/>
<feBlend mode="normal" in="SourceGraphic" in2="effect1_dropShadow_2906_37719" result="shape"/>
</filter>
<linearGradient id="paint0_linear_2906_37719" x1="29.75" y1="12.75" x2="12.25" y2="12.75" gradientUnits="userSpaceOnUse">
<stop stop-color="#FB3A1A"/>
<stop offset="1" stop-color="#EBB004"/>
</linearGradient>
</defs>
</svg>
