
<svg width="35" height="35" viewBox="0 0 35 35" fill="none" xmlns="http://www.w3.org/2000/svg">
<g filter="url(#filter0_d_2906_40374)">
<path d="M23 0C29.6274 0 35 5.37258 35 12V29.146C31.8622 30.9611 28.2191 32 24.3333 32C12.5513 32 3 22.4487 3 10.6667C3 6.78094 4.03887 3.13785 5.85402 0H23Z" fill="white"/>
</g>
<path d="M19.2559 10.9728L19.7194 12.697C20.1563 14.3225 20.3748 15.1353 21.0171 15.505C21.6594 15.8747 22.4748 15.6569 24.1054 15.2213L25.835 14.7593C27.4657 14.3238 28.281 14.106 28.6518 13.4657C29.0227 12.8254 28.8042 12.0126 28.3673 10.387L27.9038 8.66282C27.4669 7.03724 27.2484 6.22446 26.6061 5.85477C25.9638 5.48509 25.1485 5.70287 23.5178 6.13844L21.7882 6.60044C20.1576 7.03601 19.3422 7.25379 18.9714 7.89411C18.6005 8.53442 18.819 9.34721 19.2559 10.9728Z" fill="url(#paint0_linear_2906_40374)"/>
<path d="M12.6913 7.74718C12.791 7.3776 13.1634 7.16112 13.523 7.26366L15.0578 7.70135C15.8838 7.9369 16.5375 8.59138 16.7655 9.43977L18.7034 16.6493L18.846 17.1553C19.4164 17.3742 19.9063 17.7842 20.2172 18.3288L20.4964 18.2401L28.4874 16.1057C28.8486 16.0092 29.2174 16.2319 29.3113 16.6031C29.4051 16.9743 29.1885 17.3535 28.8273 17.4499L20.8659 19.5765L20.5698 19.6705C20.5637 20.8473 19.7738 21.9221 18.5784 22.2414C17.1456 22.6241 15.6728 21.7765 15.2889 20.3481C14.905 18.9198 15.7553 17.4516 17.1881 17.0689C17.2591 17.0499 17.3302 17.0339 17.4013 17.0209L15.463 9.80963C15.3655 9.44675 15.0799 9.14905 14.6965 9.03972L13.1617 8.60203C12.8021 8.49949 12.5915 8.11676 12.6913 7.74718Z" fill="url(#paint1_linear_2906_40374)"/>
<defs>
<filter id="filter0_d_2906_40374" x="0" y="-1" width="36" height="36" filterUnits="userSpaceOnUse" color-interpolation-filters="sRGB">
<feFlood flood-opacity="0" result="BackgroundImageFix"/>
<feColorMatrix in="SourceAlpha" type="matrix" values="0 0 0 0 0 0 0 0 0 0 0 0 0 0 0 0 0 0 127 0" result="hardAlpha"/>
<feOffset dx="-1" dy="1"/>
<feGaussianBlur stdDeviation="1"/>
<feComposite in2="hardAlpha" operator="out"/>
<feColorMatrix type="matrix" values="0 0 0 0 0 0 0 0 0 0 0 0 0 0 0 0 0 0 0.15 0"/>
<feBlend mode="normal" in2="BackgroundImageFix" result="effect1_dropShadow_2906_40374"/>
<feBlend mode="normal" in="SourceGraphic" in2="effect1_dropShadow_2906_40374" result="shape"/>
</filter>
<linearGradient id="paint0_linear_2906_40374" x1="29.3332" y1="14" x2="12.6665" y2="14" gradientUnits="userSpaceOnUse">
<stop stop-color="#EB0076"/>
<stop offset="1" stop-color="#FB65CF"/>
</linearGradient>
<linearGradient id="paint1_linear_2906_40374" x1="29.3332" y1="14" x2="12.6665" y2="14" gradientUnits="userSpaceOnUse">
<stop stop-color="#EB0076"/>
<stop offset="1" stop-color="#FB65CF"/>
</linearGradient>
</defs>
</svg>
