
<svg width="35" height="35" viewBox="0 0 35 35" fill="none" xmlns="http://www.w3.org/2000/svg">
<g filter="url(#filter0_d_2906_37814)">
<path d="M23 0C29.6274 0 35 5.37258 35 12V29.146C31.8622 30.9611 28.2191 32 24.3333 32C12.5513 32 3 22.4487 3 10.6667C3 6.78094 4.03887 3.13785 5.85402 0H23Z" fill="white"/>
</g>
<g clip-path="url(#clip0_2906_37814)">
<path fill-rule="evenodd" clip-rule="evenodd" d="M22.3197 4.48605C21.5592 3.83798 20.4408 3.83798 19.6803 4.48605L19.0097 5.05752C18.6838 5.33524 18.2786 5.50307 17.8518 5.53712L16.9736 5.60721C15.9776 5.68669 15.1867 6.47758 15.1072 7.47356L15.0371 8.35184C15.0031 8.77864 14.8352 9.18382 14.5575 9.5097L13.986 10.1803C13.338 10.9408 13.338 12.0592 13.986 12.8197L14.5575 13.4903C14.8352 13.8162 15.0031 14.2214 15.0371 14.6482L15.1072 15.5264C15.1867 16.5224 15.9776 17.3133 16.9736 17.3928L17.8518 17.4629C18.2786 17.4969 18.6838 17.6648 19.0097 17.9425L19.6803 18.514C20.4408 19.162 21.5592 19.162 22.3197 18.514L22.9903 17.9425C23.3162 17.6648 23.7214 17.4969 24.1482 17.4629L25.0264 17.3928C26.0224 17.3133 26.8133 16.5224 26.8928 15.5264L26.9629 14.6482C26.9969 14.2214 27.1648 13.8162 27.4425 13.4903L28.014 12.8197C28.662 12.0592 28.662 10.9408 28.014 10.1803L27.4425 9.5097C27.1648 9.18382 26.9969 8.77864 26.9629 8.35184L26.8928 7.47356C26.8133 6.47758 26.0224 5.68669 25.0264 5.60721L24.1482 5.53712C23.7214 5.50307 23.3162 5.33524 22.9903 5.05753L22.3197 4.48605ZM16.8333 22.2972V19C16.9915 19.0405 17.1546 19.0682 17.3215 19.0821L18.1022 19.147C18.2194 19.1568 18.3306 19.2048 18.4201 19.2843L19.0162 19.8138C20.1593 20.8292 21.8407 20.8292 22.9838 19.8138L23.5799 19.2843C23.6694 19.2048 23.7806 19.1568 23.8978 19.147L24.6785 19.0821C24.8454 19.0682 25.0085 19.0405 25.1667 19V22.2972C25.1667 22.9117 24.5712 23.3319 24.0238 23.1037L21.3095 21.972C21.1108 21.8892 20.8892 21.8892 20.6905 21.972L17.9762 23.1037C17.4288 23.3319 16.8333 22.9117 16.8333 22.2972Z" fill="url(#paint0_linear_2906_37814)"/>
</g>
<defs>
<filter id="filter0_d_2906_37814" x="0" y="-1" width="36" height="36" filterUnits="userSpaceOnUse" color-interpolation-filters="sRGB">
<feFlood flood-opacity="0" result="BackgroundImageFix"/>
<feColorMatrix in="SourceAlpha" type="matrix" values="0 0 0 0 0 0 0 0 0 0 0 0 0 0 0 0 0 0 127 0" result="hardAlpha"/>
<feOffset dx="-1" dy="1"/>
<feGaussianBlur stdDeviation="1"/>
<feComposite in2="hardAlpha" operator="out"/>
<feColorMatrix type="matrix" values="0 0 0 0 0 0 0 0 0 0 0 0 0 0 0 0 0 0 0.15 0"/>
<feBlend mode="normal" in2="BackgroundImageFix" result="effect1_dropShadow_2906_37814"/>
<feBlend mode="normal" in="SourceGraphic" in2="effect1_dropShadow_2906_37814" result="shape"/>
</filter>
<linearGradient id="paint0_linear_2906_37814" x1="28.5" y1="13.5833" x2="13.5" y2="13.5833" gradientUnits="userSpaceOnUse">
<stop stop-color="#029568"/>
<stop offset="1" stop-color="#2AE1A0"/>
</linearGradient>
<clipPath id="clip0_2906_37814">
<rect width="20" height="20" fill="white" transform="translate(11 4)"/>
</clipPath>
</defs>
</svg>
