<svg width="24" height="24" viewBox="0 0 24 24" fill="none" xmlns="http://www.w3.org/2000/svg">
<path d="M20.082 3.01677L20.1081 3.76632L20.082 3.01677ZM16.5 3.48647L16.2849 2.76797V2.76797L16.5 3.48647ZM13.6738 4.80178L13.2982 4.15265L13.2982 4.15265L13.6738 4.80178ZM3.9824 3.07391L3.93639 3.8225L3.9824 3.07391ZM7 3.48647L7.19136 2.76129V2.76129L7 3.48647ZM10.2823 4.87448L9.93167 5.5375L10.2823 4.87448ZM13.6276 20.0683L13.9804 20.7301L13.6276 20.0683ZM17 18.6324L16.8086 17.9072H16.8086L17 18.6324ZM19.9851 18.2218L20.032 18.9704L19.9851 18.2218ZM10.3724 20.0683L10.0196 20.7301H10.0196L10.3724 20.0683ZM7 18.6324L7.19136 17.9072H7.19136L7 18.6324ZM4.01486 18.2218L3.96804 18.9704H3.96804L4.01486 18.2218ZM2.75 16.1426V4.99683H1.25V16.1426H2.75ZM22.75 16.1426V4.93222H21.25V16.1426H22.75ZM20.0559 2.26722C18.9175 2.30688 17.4296 2.42529 16.2849 2.76797L16.7151 4.20496C17.6643 3.92081 18.9892 3.80529 20.1081 3.76632L20.0559 2.26722ZM16.2849 2.76797C15.2899 3.06586 14.1706 3.6477 13.2982 4.15265L14.0495 5.4509C14.9 4.95871 15.8949 4.45051 16.7151 4.20496L16.2849 2.76797ZM3.93639 3.8225C4.90238 3.88187 5.99643 3.99732 6.80864 4.21164L7.19136 2.76129C6.23055 2.50775 5.01517 2.38597 4.02841 2.32532L3.93639 3.8225ZM6.80864 4.21164C7.77076 4.46553 8.95486 5.02098 9.93167 5.5375L10.6328 4.21147C9.63736 3.68508 8.32766 3.06114 7.19136 2.76129L6.80864 4.21164ZM13.9804 20.7301C14.9714 20.2018 16.1988 19.6195 17.1914 19.3576L16.8086 17.9072C15.6383 18.216 14.2827 18.8691 13.2748 19.4064L13.9804 20.7301ZM17.1914 19.3576C17.9943 19.1457 19.0732 19.0303 20.032 18.9704L19.9383 17.4733C18.9582 17.5346 17.7591 17.6564 16.8086 17.9072L17.1914 19.3576ZM10.7252 19.4064C9.71727 18.8691 8.3617 18.216 7.19136 17.9072L6.80864 19.3576C7.8012 19.6195 9.0286 20.2018 10.0196 20.7301L10.7252 19.4064ZM7.19136 17.9072C6.24092 17.6564 5.04176 17.5346 4.06168 17.4733L3.96804 18.9704C4.9268 19.0303 6.00566 19.1457 6.80864 19.3576L7.19136 17.9072ZM21.25 16.1426C21.25 16.8284 20.6817 17.4268 19.9383 17.4733L20.032 18.9704C21.5062 18.8782 22.75 17.6788 22.75 16.1426H21.25ZM22.75 4.93222C22.75 3.46891 21.5847 2.21397 20.0559 2.26722L20.1081 3.76632C20.7229 3.7449 21.25 4.25063 21.25 4.93222H22.75ZM1.25 16.1426C1.25 17.6788 2.49378 18.8782 3.96804 18.9704L4.06168 17.4733C3.31831 17.4268 2.75 16.8284 2.75 16.1426H1.25ZM13.2748 19.4064C12.4825 19.8288 11.5175 19.8288 10.7252 19.4064L10.0196 20.7301C11.2529 21.3875 12.7471 21.3875 13.9804 20.7301L13.2748 19.4064ZM13.2982 4.15265C12.4801 4.62611 11.4617 4.64973 10.6328 4.21147L9.93167 5.5375C11.2239 6.2208 12.791 6.17927 14.0495 5.4509L13.2982 4.15265ZM2.75 4.99683C2.75 4.29964 3.30243 3.78354 3.93639 3.8225L4.02841 2.32532C2.47017 2.22955 1.25 3.49767 1.25 4.99683H2.75Z" fill="white"/>
<path d="M12 5.85547V21.0014" stroke="white" stroke-width="1.5"/>
<path d="M5 9L9 10" stroke="#15B088" stroke-width="1.5" stroke-linecap="round"/>
<path d="M19 9L15 10" stroke="#15B088" stroke-width="1.5" stroke-linecap="round"/>
<path d="M5 13L9 14" stroke="#15B088" stroke-width="1.5" stroke-linecap="round"/>
<path d="M19 13L15 14" stroke="#15B088" stroke-width="1.5" stroke-linecap="round"/>
</svg>
