<svg width="24" height="24" viewBox="0 0 24 24" fill="none" xmlns="http://www.w3.org/2000/svg">
<path d="M9.80078 4.5V18C9.80078 19.08 9.36077 20.07 8.66077 20.79L8.62079 20.83C8.53079 20.92 8.43079 21.01 8.34079 21.08C8.04079 21.34 7.70077 21.54 7.35077 21.68C7.24077 21.73 7.13078 21.77 7.02078 21.81C6.63078 21.94 6.21078 22 5.80078 22C5.53078 22 5.26079 21.97 5.00079 21.92C4.87079 21.89 4.74078 21.86 4.61078 21.82C4.45078 21.77 4.30079 21.72 4.15079 21.65C4.15079 21.64 4.15078 21.64 4.14078 21.65C3.86078 21.51 3.59079 21.35 3.34079 21.16L3.33078 21.15C3.20078 21.05 3.08079 20.95 2.97079 20.83C2.86079 20.71 2.75078 20.59 2.64078 20.46C2.45078 20.21 2.29079 19.94 2.15079 19.66C2.16079 19.65 2.16079 19.65 2.15079 19.65C2.15079 19.65 2.15078 19.64 2.14078 19.63C2.08078 19.49 2.03077 19.34 1.98077 19.19C1.94077 19.06 1.91077 18.93 1.88077 18.8C1.83077 18.54 1.80078 18.27 1.80078 18V4.5C1.80078 3 2.80078 2 4.30078 2H7.30078C8.80078 2 9.80078 3 9.80078 4.5Z" stroke="white" stroke-width="1.5" stroke-linecap="round" stroke-linejoin="round"/>
<path d="M21.8008 16.5V19.5C21.8008 21 20.8008 22 19.3008 22H5.80078C6.21078 22 6.63078 21.94 7.02078 21.81C7.13078 21.77 7.24077 21.73 7.35077 21.68C7.70077 21.54 8.04079 21.34 8.34079 21.08C8.43079 21.01 8.53079 20.92 8.62079 20.83L8.66077 20.79L15.4608 14H19.3008C20.8008 14 21.8008 15 21.8008 16.5Z" stroke="white" stroke-width="1.5" stroke-linecap="round" stroke-linejoin="round"/>
<path d="M4.61096 21.8199C4.01096 21.6399 3.44098 21.3099 2.97098 20.8299C2.49098 20.3599 2.16096 19.7899 1.98096 19.1899C2.37096 20.4399 3.36096 21.4299 4.61096 21.8199Z" stroke="white" stroke-width="1.5" stroke-linecap="round" stroke-linejoin="round"/>
<path d="M18.1707 11.2899L15.4607 14L8.66064 20.7899C9.36064 20.0699 9.80066 19.08 9.80066 18V8.33995L12.5107 5.62996C13.5707 4.56996 14.9907 4.56996 16.0507 5.62996L18.1707 7.74996C19.2307 8.80996 19.2307 10.2299 18.1707 11.2899Z" stroke="white" stroke-width="1.5" stroke-linecap="round" stroke-linejoin="round"/>
<path d="M5.80078 19C6.35307 19 6.80078 18.5523 6.80078 18C6.80078 17.4477 6.35307 17 5.80078 17C5.2485 17 4.80078 17.4477 4.80078 18C4.80078 18.5523 5.2485 19 5.80078 19Z" stroke="#15B088" stroke-width="1.5" stroke-linecap="round" stroke-linejoin="round"/>
</svg>
