<svg width="24" height="24" viewBox="0 0 24 24" fill="none" xmlns="http://www.w3.org/2000/svg">
<path d="M5.33333 8H3.11111M5.33333 16C5.33333 16 3.97894 16 3.11111 16M5.33333 12H2M6.44444 3.68394C8.03344 2.6203 9.94428 2 12 2C17.5228 2 22 6.47715 22 12C22 17.5228 17.5228 22 12 22C9.94428 22 8.03344 21.3797 6.44444 20.3161" stroke="#B3B3B3" stroke-width="2" stroke-linecap="round" stroke-linejoin="round"/>
<path d="M12 15.3335V15.6668V16.0002" stroke="#B3B3B3" stroke-width="1.5" stroke-linecap="round"/>
<path d="M12 8V8.33333V8.66667" stroke="#B3B3B3" stroke-width="1.5" stroke-linecap="round"/>
<path d="M14 10.3332C14 9.4127 13.1046 8.6665 12 8.6665C10.8954 8.6665 10 9.4127 10 10.3332C10 11.2536 10.8954 11.9998 12 11.9998C13.1046 11.9998 14 12.746 14 13.6665C14 14.587 13.1046 15.3332 12 15.3332C10.8954 15.3332 10 14.587 10 13.6665" stroke="#B3B3B3" stroke-width="1.5" stroke-linecap="round"/>
</svg>
