<svg width="24" height="24" viewBox="0 0 24 24" fill="none" xmlns="http://www.w3.org/2000/svg">
<path d="M4 8C4 5.17157 4 3.75736 4.87868 2.87868C5.75736 2 7.17157 2 10 2H14C16.8284 2 18.2426 2 19.1213 2.87868C20 3.75736 20 5.17157 20 8V15C20 17.8284 20 19.2426 19.1213 20.1213C18.2426 21 16.8284 21 14 21H10C7.17157 21 5.75736 21 4.87868 20.1213C4 19.2426 4 17.8284 4 15V8Z" stroke="#B3B3B3" stroke-width="2"/>
<path d="M19.8978 15H7.89778C6.96781 15 6.50282 15 6.12132 15.1022C5.08604 15.3796 4.2774 16.1883 4 17.2235" stroke="#B3B3B3" stroke-width="2"/>
<path d="M8 7H16" stroke="#B3B3B3" stroke-width="2" stroke-linecap="round"/>
<path d="M8 10H13" stroke="#B3B3B3" stroke-width="2" stroke-linecap="round"/>
</svg>
