<svg width="24" height="24" viewBox="0 0 24 24" fill="none" xmlns="http://www.w3.org/2000/svg">
<path d="M4 8C4 5.17157 4 3.75736 4.87868 2.87868C5.75736 2 7.17157 2 10 2H14C16.8284 2 18.2426 2 19.1213 2.87868C20 3.75736 20 5.17157 20 8V16C20 18.8284 20 20.2426 19.1213 21.1213C18.2426 22 16.8284 22 14 22H10C7.17157 22 5.75736 22 4.87868 21.1213C4 20.2426 4 18.8284 4 16V8Z" stroke="#B3B3B3" stroke-width="2"/>
<path d="M19.8978 16H7.89778C6.96781 16 6.50282 16 6.12132 16.1022C5.08604 16.3796 4.2774 17.1883 4 18.2235" stroke="#B3B3B3" stroke-width="2"/>
<path d="M12 12.3335V12.6668V13.0002" stroke="#B3B3B3" stroke-width="1.5" stroke-linecap="round"/>
<path d="M12 5V5.33333V5.66667" stroke="#B3B3B3" stroke-width="1.5" stroke-linecap="round"/>
<path d="M14 7.33317C14 6.4127 13.1046 5.6665 12 5.6665C10.8954 5.6665 10 6.4127 10 7.33317C10 8.25364 10.8954 8.99984 12 8.99984C13.1046 8.99984 14 9.74603 14 10.6665C14 11.587 13.1046 12.3332 12 12.3332C10.8954 12.3332 10 11.587 10 10.6665" stroke="#B3B3B3" stroke-width="1.5" stroke-linecap="round"/>
</svg>
