<svg width="24" height="24" viewBox="0 0 24 24" fill="none" xmlns="http://www.w3.org/2000/svg">
<path d="M4 8C4 5.17157 4 3.75736 4.87868 2.87868C5.75736 2 7.17157 2 10 2H14C16.8284 2 18.2426 2 19.1213 2.87868C20 3.75736 20 5.17157 20 8V16C20 18.8284 20 20.2426 19.1213 21.1213C18.2426 22 16.8284 22 14 22H10C7.17157 22 5.75736 22 4.87868 21.1213C4 20.2426 4 18.8284 4 16V8Z" stroke="white" stroke-width="1.5"/>
<path d="M16 6H8" stroke="#15B088" stroke-width="1.5" stroke-linecap="round"/>
<path d="M16 14H8" stroke="#15B088" stroke-width="1.5" stroke-linecap="round"/>
<path d="M14 10H8" stroke="#15B088" stroke-width="1.5" stroke-linecap="round"/>
<circle cx="12" cy="20" r="2" stroke="white" stroke-width="1.5"/>
</svg>
