<svg width="24" height="24" viewBox="0 0 24 24" fill="none" xmlns="http://www.w3.org/2000/svg">
<path d="M10 9.00074V7.7728C10 6.18808 10.993 5.54922 12.2067 6.33743L13.1482 6.9514L14.0897 7.56537C15.3034 8.35358 15.3034 9.6479 14.0897 10.4361L13.1482 11.0501L12.2067 11.6641C10.993 12.4523 10 11.8051 10 10.2287V9.00074Z" stroke="#15B088" stroke-width="1.5" stroke-miterlimit="10" stroke-linecap="round" stroke-linejoin="round"/>
<path d="M4 8C4 5.17157 4 3.75736 4.87868 2.87868C5.75736 2 7.17157 2 10 2H14C16.8284 2 18.2426 2 19.1213 2.87868C20 3.75736 20 5.17157 20 8V16C20 18.8284 20 20.2426 19.1213 21.1213C18.2426 22 16.8284 22 14 22H10C7.17157 22 5.75736 22 4.87868 21.1213C4 20.2426 4 18.8284 4 16V8Z" stroke="white" stroke-width="1.5"/>
<path d="M19.8978 16H7.89778C6.96781 16 6.50282 16 6.12132 16.1022C5.08604 16.3796 4.2774 17.1883 4 18.2235" stroke="white" stroke-width="1.5"/>
</svg>
