<svg width="24" height="24" viewBox="0 0 24 24" fill="none" xmlns="http://www.w3.org/2000/svg">
<path d="M4.55859 6.99365C5.45451 9.42592 6.83871 11.8967 8.66648 13.7353C10.6265 15.7068 13.1703 17.0821 15.6077 18.3737" stroke="#15B088" stroke-width="1.5" stroke-linejoin="round"/>
<path fill-rule="evenodd" clip-rule="evenodd" d="M3.45173 19.4915C3.32685 19.3634 3.22164 19.218 3.13689 19.0607C2.45042 17.7292 2.0644 16.2616 2.0064 14.7626L2.00611 14.7551C1.95614 13.1942 2.21293 11.6388 2.7617 10.1781C3.19399 9.02747 3.80079 7.95348 4.55878 6.99368C4.41155 6.71131 4.33295 6.39471 4.33355 6.07019C4.3345 5.55429 4.53554 5.05924 4.89369 4.69046C7.07285 2.43878 9.43797 1.45429 11.975 2.30099C13.2581 2.7811 14.4526 3.59928 15.4398 4.54052C16.0821 4.13229 16.8013 3.85376 17.5574 3.72495C18.6792 3.53384 19.8778 3.67756 20.9094 4.16574C21.3669 4.39364 21.7179 4.79219 21.8879 5.27655C22.0569 5.75764 22.0341 6.28582 21.8246 6.75024C21.722 6.98256 21.5749 7.19223 21.3918 7.36729C21.2062 7.54476 20.9873 7.68312 20.7478 7.77424C20.5083 7.86537 20.2532 7.90739 19.9974 7.89789C19.7497 7.88869 19.5062 7.83135 19.2802 7.72908C18.9828 7.60408 18.6599 7.55483 18.3402 7.58478C19.1022 8.52273 19.7616 9.60626 20.1627 10.7505C20.97 13.3266 20.0422 15.7441 17.86 18C17.6818 18.1854 17.4684 18.3328 17.2326 18.4337C16.9958 18.535 16.7411 18.5872 16.4838 18.5872C16.1796 18.5872 15.8776 18.5134 15.6079 18.3737C14.6974 19.1406 13.6699 19.7582 12.5629 20.2016C11.1369 20.7728 9.60957 21.0427 8.07565 20.9945L8.06346 20.9941C6.59505 20.9318 5.16068 20.5294 3.8717 19.8186C3.71752 19.7288 3.57593 19.6198 3.45173 19.4915Z" stroke="white" stroke-width="1.5" stroke-linejoin="round"/>
</svg>
